<svg xmlns="http://www.w3.org/2000/svg" width="54" height="54" fill="currentColor">
  <g clip-path="url(#a)">
    <path d="M23.625 27a11.812 11.812 0 0 1 11.813 11.998 1.686 1.686 0 0 0 2.105 1.66 5.073 5.073 0 0 1 6.332 4.904 5.062 5.062 0 0 1-5.063 5.063H10.125a6.75 6.75 0 1 1 .338-13.493 1.687 1.687 0 0 0 1.72-1.266A11.82 11.82 0 0 1 23.626 27Zm15.096 10.125a15.188 15.188 0 0 0-29.43-3.341A10.125 10.125 0 0 0 10.125 54h28.688a8.437 8.437 0 1 0 0-16.875h-.092Z"/>
    <path d="M35.438 5.063a1.687 1.687 0 1 0-3.376 0v3.375a1.687 1.687 0 0 0 3.376 0V5.062ZM48.07 11.69a1.687 1.687 0 1 0-2.386-2.386l-2.39 2.386a1.69 1.69 0 1 0 2.39 2.39l2.386-2.39ZM21.816 9.305a1.687 1.687 0 0 0-2.386 2.386l2.386 2.39a1.69 1.69 0 1 0 2.39-2.39l-2.39-2.386Zm5.852 11.387a6.75 6.75 0 1 1 11.124 7.418 18.573 18.573 0 0 1 1.742 3.031 10.125 10.125 0 1 0-16.335-10.884 18.62 18.62 0 0 1 3.47.435Zm15.134 13.75a11.843 11.843 0 0 1 5.136 3.618 1.688 1.688 0 0 0 .132-2.504l-2.386-2.386a1.687 1.687 0 0 0-2.882 1.272Zm6.136-12.505a1.687 1.687 0 1 0 0 3.375h3.374a1.687 1.687 0 1 0 0-3.375h-3.374Z"/>
  </g>
  <defs>
    <clipPath id="a">
      <path d="M0 0h54v54H0z"/>
    </clipPath>
  </defs>
</svg>
