<svg xmlns="http://www.w3.org/2000/svg" xml:space="preserve" width="64" height="64" fill="currentColor" stroke="currentColor" viewBox="0 0 512.004 512.004">
  <path d="m467.019 106.194-49.263-6.656-.143-.019L160.95 64.841a34.431 34.431 0 0 0-6.681-.811c-.173-.007-.345-.009-.518-.012-.128-.001-.254-.009-.383-.009-13.295 0-24.175 7.187-32.648 19.557L64 127.288V21.335C64 9.553 54.449.002 42.667.002c-11.782 0-21.333 9.551-21.333 21.333v448C9.551 469.336 0 478.887 0 490.669s9.551 21.333 21.333 21.333H64c11.782 0 21.333-9.551 21.333-21.333S75.782 469.336 64 469.336V224.267l49.619 52.469c8.997 19.732 21.967 31.903 38.921 32.288.17.007.339.009.509.012.107.001.212.007.319.007 2.604 0 5.113-.285 7.532-.821l256.716-34.685.136-.018 49.268-6.657c30.434-1.078 44.985-32.173 44.985-80.334s-14.552-79.255-44.986-80.334zm-65.142 80.323c0 16.805-1.49 32.834-4.176 46.656l-59.28 8.009c3.206-16.546 4.922-35.226 4.922-54.663 0-19.427-1.716-38.102-4.922-54.646l59.281 8.009c2.685 13.821 4.175 29.844 4.175 46.635zm-252.119 64.814c-5.507-16.519-8.785-39.765-8.785-64.805s3.278-48.286 8.785-64.805c1.167-3.501 2.392-6.557 3.61-9.102.043.09.086.19.129.281 1.175 2.49 2.355 5.442 3.481 8.82 5.507 16.519 8.785 39.765 8.785 64.805s-3.278 48.286-8.785 64.805a87.283 87.283 0 0 1-2.467 6.548l-3.913-4.137a96.695 96.695 0 0 1-.84-2.41zm-75.372-78.178L99.881 153.5c-1.049 10.509-1.575 21.584-1.575 33.025 0 4.095.069 8.143.203 12.136l-24.123-25.508zm125.013 86.503a162.161 162.161 0 0 0 1.156-4.125c.276-1.034.547-2.077.808-3.133.088-.357.173-.719.26-1.079.208-.861.411-1.73.609-2.605.083-.368.168-.732.25-1.102a210.22 210.22 0 0 0 .951-4.571c.212-1.075.418-2.156.616-3.249.069-.379.134-.761.201-1.142.166-.942.326-1.891.482-2.846.07-.431.141-.86.21-1.293.182-1.151.356-2.312.523-3.481.064-.45.126-.903.189-1.356.137-.995.269-1.995.396-3.002.058-.464.117-.927.173-1.393a265.463 265.463 0 0 0 .525-4.693c.126-1.215.246-2.436.357-3.667.041-.455.079-.914.118-1.371.085-.99.166-1.984.242-2.982.033-.432.068-.861.099-1.295a324.486 324.486 0 0 0 .335-5.308c.071-1.281.137-2.566.194-3.86.018-.418.033-.84.049-1.259.042-1.045.079-2.094.111-3.146.015-.489.031-.977.044-1.468.035-1.298.062-2.602.082-3.911.008-.52.014-1.042.02-1.564.013-1.138.021-2.281.024-3.427.001-.268.006-.533.006-.802 0-.266-.005-.529-.005-.795a357.66 357.66 0 0 0-.044-4.991 361.625 361.625 0 0 0-.083-3.931c-.013-.478-.029-.953-.043-1.429a334.516 334.516 0 0 0-.114-3.215c-.016-.4-.03-.802-.047-1.201a326.48 326.48 0 0 0-.28-5.361c-.077-1.29-.16-2.575-.252-3.851-.029-.399-.061-.795-.091-1.193a303.707 303.707 0 0 0-.253-3.123c-.036-.423-.072-.848-.11-1.269a285.147 285.147 0 0 0-.365-3.748c-.046-.443-.094-.884-.141-1.325a280.726 280.726 0 0 0-.398-3.486c-.044-.363-.09-.725-.135-1.087a279.473 279.473 0 0 0-.425-3.223c-.056-.408-.112-.816-.17-1.222a235.723 235.723 0 0 0-.54-3.591c-.06-.383-.123-.762-.185-1.142a229.233 229.233 0 0 0-.525-3.096c-.047-.265-.091-.534-.139-.798a218.282 218.282 0 0 0-.669-3.523c-.075-.378-.149-.754-.225-1.129a201.25 201.25 0 0 0-.722-3.417c-.067-.303-.137-.602-.205-.904a184.87 184.87 0 0 0-.674-2.881c-.071-.293-.14-.588-.212-.879a170.218 170.218 0 0 0-1.113-4.262 168.234 168.234 0 0 0-.919-3.241l-.039-.137 93.812 12.675c4.704 15.949 7.556 37.531 7.556 60.766 0 23.248-2.851 44.833-7.555 60.783l-93.813 12.675c.034-.103.062-.213.093-.319zm264.637-37.142c-1.103 2.293-.321 1.71 1.334 1.71l-2.856.192-20.626 2.787c1.737-12.842 2.656-26.577 2.656-40.685 0-14.097-.919-27.826-2.656-40.664l20.625 2.787 2.856.192c-1.655 0-2.437-.584-1.334 1.71 3.224 6.702 5.302 18.869 5.302 35.986s-2.077 29.283-5.301 35.985z"/>
</svg>
