<svg xmlns="http://www.w3.org/2000/svg" width="64" height="64" viewBox="0 0 32 32" fill="currentColor">
  <path d="M8.508 32a1.013 1.013 0 0 1-.448-.105.999.999 0 0 1-.449-1.342l1.494-3a1.002 1.002 0 0 1 1.794.894l-1.493 3a1.001 1.001 0 0 1-.898.553ZM26.464 16.88l1.414-1.415L30 17.586l-1.414 1.415zM29 10h3v2h-3zM26.464 5.122 28.585 3 30 4.415l-2.122 2.121zM20 0h2v3h-2zM12 4.414 13.414 3l2.121 2.121-1.414 1.415zM27 11a5.995 5.995 0 0 0-11.367-2.669A7.35 7.35 0 0 0 13.5 8a7.55 7.55 0 0 0-7.15 5.244A5.993 5.993 0 0 0 8 25h7.382l-1.276 2.553a1 1 0 1 0 1.788.894L17.619 25H19a5.985 5.985 0 0 0 5.216-8.946A5.994 5.994 0 0 0 27 11Zm-8 12H8a3.993 3.993 0 0 1-.673-7.93l.663-.112.146-.656a5.496 5.496 0 0 1 10.73 0l.145.656.663.113A3.993 3.993 0 0 1 19 23Zm3.927-8.51a5.96 5.96 0 0 0-2.278-1.246 7.516 7.516 0 0 0-3.185-4.069 3.987 3.987 0 1 1 5.463 5.314Z"/>
  <path d="M0 0h32v32H0z" data-name="&lt;Transparent Rectangle&gt;" style="fill:none"/>
</svg>
