<svg xmlns="http://www.w3.org/2000/svg" width="64" height="64" viewBox="0 0 48 48">
  <path fill="currentColor" fill-rule="nonzero" d="m21.282 31.95 4.517-5.489a1.25 1.25 0 0 1 2.011 1.479l-.08.11-2.835 3.444h4.858c1.01 0 1.586 1.124 1.045 1.937l-.074.1-6.485 8.005a1.25 1.25 0 0 1-2.023-1.463l.08-.11 4.835-5.969h-4.884c-1.014 0-1.589-1.132-1.04-1.944l.075-.1 4.517-5.489-4.517 5.489Zm4.72-21.932c6.336 0 9.931 4.194 10.454 9.26h.16c4.078 0 7.384 3.298 7.384 7.365 0 4.068-3.306 7.365-7.384 7.365l-4.123.001c.318-.42.507-.942.507-1.509 0-.35-.072-.684-.203-.987h4.007c2.594 0 4.697-2.114 4.697-4.721 0-2.608-2.103-4.722-4.697-4.722h-1.42c-.752 0-1.408-.592-1.408-1.346 0-4.824-3.714-8.211-7.975-8.211-4.26 0-7.975 3.448-7.975 8.21 0 .755-.656 1.347-1.407 1.347h-1.42c-2.595 0-4.698 2.114-4.698 4.722 0 2.607 2.103 4.721 4.697 4.721h4.005c-.13.303-.203.636-.203.987 0 .567.189 1.09.507 1.51l-4.12-.002c-4.079 0-7.385-3.297-7.385-7.365 0-3.986 3.175-7.233 7.14-7.361l.404-.004c.526-5.099 4.118-9.26 10.455-9.26ZM19.997 4a9.431 9.431 0 0 1 7.787 4.104 15.286 15.286 0 0 0-3.437-.017 6.649 6.649 0 0 0-4.35-1.625c-3.285 0-6.083 2.422-6.644 5.696l-.313 1.83a1 1 0 0 1-.986.831h-1.947c-2.063 0-3.735 1.71-3.735 3.821 0 1.106.459 2.102 1.193 2.8a9.274 9.274 0 0 0-1.044 2.092 6.564 6.564 0 0 1 4.04-11.737h.142A9.44 9.44 0 0 1 19.998 4Z"/>
</svg>
