<svg xmlns="http://www.w3.org/2000/svg" width="56" height="55" fill="none">
  <path fill="currentColor" d="M28.005 3.546c.94 0 1.702.755 1.702 1.688v2.25c0 .933-.762 1.688-1.702 1.688s-1.702-.755-1.702-1.688v-2.25c0-.933.762-1.688 1.702-1.688Z"/>
  <path fill="currentColor" fill-rule="evenodd" d="M14.954 27.741c0-7.148 5.843-12.942 13.05-12.942 7.208 0 13.051 5.794 13.051 12.942 0 7.148-5.843 12.942-13.05 12.942-7.208 0-13.05-5.794-13.05-12.942Zm13.05-9.566c-5.327 0-9.645 4.283-9.645 9.566s4.318 9.566 9.646 9.566c5.327 0 9.646-4.283 9.646-9.566s-4.319-9.566-9.646-9.566Z" clip-rule="evenodd"/>
  <path fill="currentColor" d="M13.16 10.632a1.712 1.712 0 0 0-2.408 0 1.678 1.678 0 0 0 0 2.388l1.605 1.591c.665.66 1.743.66 2.408 0a1.678 1.678 0 0 0 0-2.387l-1.605-1.592ZM52.403 27.741c0 .932-.762 1.688-1.702 1.688h-2.27c-.94 0-1.702-.756-1.702-1.688 0-.932.762-1.688 1.703-1.688h2.27c.94 0 1.701.756 1.701 1.688ZM45.257 13.02a1.678 1.678 0 0 0 0-2.388 1.712 1.712 0 0 0-2.407 0l-1.605 1.592a1.678 1.678 0 0 0 0 2.387c.665.66 1.742.66 2.407 0l1.605-1.591ZM28.005 46.31c.94 0 1.702.755 1.702 1.688v2.25c0 .933-.762 1.689-1.702 1.689s-1.702-.756-1.702-1.688v-2.251c0-.932.762-1.688 1.702-1.688ZM43.652 40.871a1.712 1.712 0 0 0-2.407 0 1.678 1.678 0 0 0 0 2.387l1.605 1.592c.665.66 1.742.66 2.407 0a1.678 1.678 0 0 0 0-2.387l-1.605-1.592ZM9.28 27.741c0 .932-.762 1.688-1.702 1.688h-2.27c-.94 0-1.702-.756-1.702-1.688 0-.932.762-1.688 1.702-1.688h2.27c.94 0 1.702.756 1.702 1.688ZM14.764 43.258a1.678 1.678 0 0 0 0-2.387 1.712 1.712 0 0 0-2.407 0l-1.605 1.592a1.678 1.678 0 0 0 0 2.387c.665.66 1.743.66 2.408 0l1.604-1.592Z"/>
</svg>
