<svg xmlns="http://www.w3.org/2000/svg" width="24" height="16" fill="none"><g clip-path="url(#a)"><path fill="#012169" d="M0 .1v13.8h23V.1H0Z"/><path fill="#0F0F0F" d="m0 .1 23 13.8L0 .1Zm23 0L0 13.9 23 .1Z"/><path stroke="#fff" stroke-width="2.76" d="m0 .1 23 13.8M23 .1 0 13.9"/><mask id="b" width="23" height="14" x="0" y="0" maskUnits="userSpaceOnUse" style="mask-type:luminance"><path fill="#fff" d="M11.5 7H23v6.9L11.5 7Zm0 0v6.9H0L11.5 7Zm0 0H0V.1L11.5 7Zm0 0V.1H23L11.5 7Z"/></mask><g mask="url(#b)"><path fill="#0F0F0F" d="m0 .1 23 13.8L0 .1Zm23 0L0 13.9 23 .1Z"/><path stroke="#C8102E" stroke-width="1.84" d="m0 .1 23 13.8M23 .1 0 13.9"/></g><path fill="#C8102E" stroke="#fff" stroke-width=".92" d="M-.46 5.16H9.66V-.36h3.68v5.52h10.12v3.68H13.34v5.52H9.66V8.84H-.46V5.16Z"/></g><defs><clipPath id="a"><path fill="#fff" d="M0 .1h23v13.8H0z"/></clipPath></defs></svg>